<svg width="201" height="200" viewBox="0 0 201 200" fill="none" xmlns="http://www.w3.org/2000/svg">
<path d="M100.79 200C156.019 200 200.79 155.228 200.79 100C200.79 44.7715 156.019 0 100.79 0C45.5616 0 0.790039 44.7715 0.790039 100C0.790039 155.228 45.5616 200 100.79 200Z" fill="#FBBC23"/>
<path d="M100.636 71.3085C101.789 69.8285 102.593 68.0233 103.702 66.4425C121.436 41.2099 160.747 52.3638 162.608 82.5053C163.944 104.127 150.293 120.541 135.649 134.41C121.814 147.51 107.775 161.082 87.1114 151.454C78.836 147.596 63.3065 132.421 56.7962 125.346C40.5632 107.703 28.6797 77.0569 51.3928 59.2216C68.0393 46.1515 91.8718 52.5983 100.636 71.3059V71.3085Z" fill="white"/>
</svg>
