<svg width="200" height="200" viewBox="0 0 200 200" fill="none" xmlns="http://www.w3.org/2000/svg">
<path d="M99.9987 199.997C155.227 199.997 199.997 155.227 199.997 99.9987C199.997 44.771 155.227 0 99.9987 0C44.771 0 0 44.771 0 99.9987C0 155.227 44.771 199.997 99.9987 199.997Z" fill="#FBBC23"/>
<path d="M105.972 53.4246C112.712 53.5028 119.61 54.8995 124.867 59.3419C128.115 62.085 132.656 68.5947 132.669 72.9463C132.681 77.4215 127.593 80.4646 123.523 78.3165C120.533 76.7382 120.8 74.3078 119.542 71.7185C117.641 67.8005 113.456 65.0902 109.129 64.7524C104.033 64.354 94.8224 64.3288 89.7569 64.7927C83.9551 65.3247 78.4938 68.7031 78.0021 74.9532C77.3239 83.5707 78.277 89.1199 87.3868 91.5327C102.936 95.6498 133.599 93.4589 134.95 115.504C135.135 118.515 135.142 122.846 134.95 125.854C133.997 140.777 119.308 147.13 105.972 146.372V154.558C105.972 154.674 105.397 155.861 105.264 156.116C103.1 160.238 96.9958 160.329 94.6862 156.272C94.5274 155.995 93.8819 154.714 93.8819 154.558V146.372C81.4539 147.428 69.2024 140.58 65.796 128.234C64.6765 124.175 65.1934 119.216 70.327 118.663C77.5382 117.887 76.6986 124.964 79.6662 129.225C82.0691 132.674 86.2975 134.94 90.483 135.283C96.1032 135.742 110.382 135.876 115.286 133.897C118.466 132.613 121.95 129.724 122.346 126.093C122.596 123.804 122.628 117.514 122.323 115.282C121.693 110.676 116.257 108.135 112.273 107.197C97.7245 103.773 67.4854 105.087 65.675 84.7784C64.5378 72.021 65.9473 61.5126 78.7762 56.0744C83.6122 54.0247 88.6878 53.6187 93.8819 53.4221V45.4878C93.8819 45.334 94.7518 43.5314 94.9308 43.2641C97.1673 39.9361 102.719 39.979 104.921 43.2641C105.102 43.5339 105.969 45.334 105.969 45.4878V53.4221L105.972 53.4246Z" fill="white"/>
</svg>
