<svg width="201" height="200" viewBox="0 0 201 200" fill="none" xmlns="http://www.w3.org/2000/svg">
<path d="M100.21 200C155.438 200 200.21 155.228 200.21 100C200.21 44.7715 155.438 0 100.21 0C44.9815 0 0.209961 44.7715 0.209961 100C0.209961 155.228 44.9815 200 100.21 200Z" fill="#FBBC23"/>
<path d="M98.6467 31.5769C102.252 31.05 105.772 32.8652 107.234 36.2082L151.145 144.936C153.397 151.761 146.609 157.721 140.094 154.728L34.9761 103.681C29.4469 100.913 29.0914 92.9257 34.3988 89.7466C48.1928 83.8623 62.3197 78.7268 76.0457 72.7039L93.1174 35.3687C94.1764 33.5636 96.5388 31.887 98.6467 31.5794V31.5769Z" fill="white"/>
<path d="M100.215 39.8233L143.541 147.372L38.7607 96.7425C38.5716 96.4929 41.6905 95.2626 42.0434 95.1164C55.192 89.6153 68.5953 84.7016 81.7162 79.1224C87.9312 66.6757 93.1856 53.7298 99.1686 41.162C99.2846 40.9175 99.7914 39.4073 100.218 39.8208L100.215 39.8233Z" fill="white"/>
</svg>
