<svg width="192" height="192" viewBox="0 0 192 192" fill="none" xmlns="http://www.w3.org/2000/svg">
<mask id="mask0_14_166" style="mask-type:luminance" maskUnits="userSpaceOnUse" x="29" y="25" width="135" height="135">
<path d="M156.44 25H36.5C32.3579 25 29 28.3579 29 32.5V152.44C29 156.582 32.3579 159.94 36.5 159.94H156.44C160.582 159.94 163.94 156.582 163.94 152.44V32.5C163.94 28.3579 160.582 25 156.44 25Z" fill="white"/>
</mask>
<g mask="url(#mask0_14_166)">
<path d="M126.53 83.41H46.5C41.4963 83.41 37.44 87.4663 37.44 92.47V169.44C37.44 174.444 41.4963 178.5 46.5 178.5H126.53C131.534 178.5 135.59 174.444 135.59 169.44V92.47C135.59 87.4663 131.534 83.41 126.53 83.41Z" fill="#FF4B00"/>
<path d="M35.08 143H41.33C44.33 143.02 46.76 145.45 46.76 148.46L46.71 178.5H35.07C32.07 178.5 29.64 176.07 29.64 173.07V148.44C29.64 145.43 32.08 143 35.08 143.01V143Z" fill="#FF4B00"/>
<path d="M137.95 143H131.7C128.7 143.02 126.27 145.45 126.27 148.46L126.32 178.5H137.96C140.96 178.5 143.39 176.07 143.39 173.07V148.44C143.39 145.43 140.95 143 137.95 143.01V143Z" fill="#FF4B00"/>
<path d="M37.43 96.95L135.58 96.95V92.11L37.43 92.11V96.95Z" fill="#3E2832"/>
<path d="M46.7 178.5C41.58 178.5 37.44 174.35 37.44 169.24V143.01" stroke="#3E2832" stroke-width="0.84" stroke-linecap="round" stroke-linejoin="round"/>
<path d="M135.58 143.01V169.24C135.58 174.36 131.43 178.5 126.32 178.5" stroke="#3E2832" stroke-width="0.84" stroke-linecap="round" stroke-linejoin="round"/>
<path d="M85.5 68.77C97.5619 68.77 107.34 58.9919 107.34 46.93C107.34 34.8681 97.5619 25.09 85.5 25.09C73.4381 25.09 63.66 34.8681 63.66 46.93C63.66 58.9919 73.4381 68.77 85.5 68.77Z" fill="#FD742A"/>
<path d="M113.51 324.14C123.95 324.14 132.64 316.11 133.46 305.7L135.28 282.67C136.61 265.77 135.65 248.78 132.43 232.14L117.15 153.26H66.58L94.87 257.22L93.66 268.52C92.32 281.04 92.3 293.67 93.6 306.2C94.66 316.4 103.25 324.15 113.5 324.15L113.51 324.14Z" fill="#3B262F"/>
<path d="M53.6 153.26C48.85 179.73 46.44 206.56 46.41 233.45L46.31 303.72C46.29 314.99 55.43 324.14 66.7 324.14C77.96 324.14 87.09 315.01 87.09 303.76L87.13 153.26H53.6Z" fill="#3B262F"/>
<path d="M75.45 45.88H93.21C99.95 45.88 104.02 38.42 100.38 32.75C98.23 29.41 94.06 27.99 90.32 29.34L73.61 35.37C70.26 36.58 68.97 40.64 71.01 43.57C72.02 45.02 73.68 45.88 75.45 45.88Z" fill="#43170D"/>
<path d="M75.45 45.88H93.21C99.95 45.88 104.02 38.42 100.38 32.75C98.23 29.41 94.06 27.99 90.32 29.34L73.61 35.37C70.26 36.58 68.97 40.64 71.01 43.57C72.02 45.02 73.68 45.88 75.45 45.88Z" fill="#43170D"/>
<path d="M77.35 40.54L92.62 49.62C98.41 53.07 105.73 48.74 105.49 42C105.35 38.03 102.49 34.68 98.58 33.92L81.14 30.56C77.64 29.89 74.45 32.72 74.72 36.28C74.85 38.04 75.83 39.63 77.35 40.53V40.54Z" fill="#43170D"/>
<path d="M121.82 91.7L100 85.26C90.87 82.56 81.15 82.56 72.02 85.26L50.2 91.7V172.29C50.2 176.09 52.7 179.44 56.35 180.52C75.71 186.24 96.31 186.24 115.68 180.52C119.33 179.44 121.83 176.09 121.83 172.29V91.7H121.82Z" fill="#FFB700"/>
<mask id="mask1_14_166" style="mask-type:luminance" maskUnits="userSpaceOnUse" x="71" y="63" width="30" height="37">
<path d="M100.2 85.32C97.5 84.52 95.65 82.05 95.65 79.23V73.1C95.65 67.77 91.33 63.45 86 63.45C80.67 63.45 76.35 67.77 76.35 73.1V79.23C76.35 82.04 74.5 84.52 71.8 85.32C71.8 93.16 78.16 99.52 85.99 99.52C93.83 99.52 100.18 93.16 100.18 85.33L100.2 85.32Z" fill="white"/>
</mask>
<g mask="url(#mask1_14_166)">
<path d="M100.2 85.32C97.5 84.52 95.65 82.05 95.65 79.23V73.1C95.65 67.77 91.33 63.45 86 63.45C80.67 63.45 76.35 67.77 76.35 73.1V79.23C76.35 82.04 74.5 84.52 71.8 85.32C71.8 93.16 78.16 99.52 85.99 99.52C93.83 99.52 100.18 93.16 100.18 85.33L100.2 85.32Z" fill="#FD9B8B"/>
<path d="M95.65 83.97C103.531 83.97 109.92 77.5811 109.92 69.7C109.92 61.8189 103.531 55.43 95.65 55.43C87.7689 55.43 81.38 61.8189 81.38 69.7C81.38 77.5811 87.7689 83.97 95.65 83.97Z" fill="#ED755E"/>
</g>
<path d="M86.08 36.97C76.56 36.97 69.09 45.15 69.96 54.64L70.75 63.3L70.88 64.64C71.64 72.46 78.21 78.42 86.07 78.42C93.94 78.42 100.53 72.43 101.26 64.59L102.19 54.68C103.08 45.18 95.61 36.98 86.07 36.98L86.08 36.97Z" fill="#FD9B8B"/>
<path d="M102.42 53.14H102.18C99.2418 53.14 96.86 55.5218 96.86 58.46V58.7C96.86 61.6382 99.2418 64.02 102.18 64.02H102.42C105.358 64.02 107.74 61.6382 107.74 58.7V58.46C107.74 55.5218 105.358 53.14 102.42 53.14Z" fill="#FD9B8B"/>
<path d="M102.26 55.22C104.12 55.22 105.63 56.73 105.63 58.59" stroke="#ED755E" stroke-width="0.84" stroke-linecap="round" stroke-linejoin="round"/>
<path d="M69.68 64.03H69.92C72.8582 64.03 75.24 61.6482 75.24 58.71V58.47C75.24 55.5318 72.8582 53.15 69.92 53.15H69.68C66.7418 53.15 64.36 55.5318 64.36 58.47V58.71C64.36 61.6482 66.7418 64.03 69.68 64.03Z" fill="#FD9B8B"/>
<path d="M69.85 55.22C67.99 55.22 66.48 56.73 66.48 58.59" stroke="#ED755E" stroke-width="0.84" stroke-linecap="round" stroke-linejoin="round"/>
<path d="M98.62 45.35L99.49 54.93C99.65 56.67 102.06 56.99 102.66 55.35C103.36 53.46 103.63 51.43 103.39 49.42C102.73 43.76 99.63 33.26 85.79 33.26C71.95 33.26 68.85 43.76 68.19 49.42C67.95 51.42 68.22 53.45 68.92 55.35C69.53 56.99 71.93 56.67 72.09 54.93L72.96 45.35C73.09 43.92 74.71 43.15 75.9 43.96C81.87 48.04 89.72 48.04 95.69 43.96C96.88 43.15 98.5 43.91 98.63 45.35H98.62Z" fill="#43170D"/>
<path d="M90.1 52.6L90.21 52.54C91.79 51.61 93.76 51.69 95.26 52.75" stroke="#43170D" stroke-width="1.26" stroke-linecap="round" stroke-linejoin="round"/>
<path d="M76.65 52.6L76.76 52.54C78.34 51.61 80.31 51.69 81.81 52.75" stroke="#43170D" stroke-width="1.26" stroke-linecap="round" stroke-linejoin="round"/>
<path d="M92.68 57.14C93.525 57.14 94.21 56.455 94.21 55.61C94.21 54.765 93.525 54.08 92.68 54.08C91.835 54.08 91.15 54.765 91.15 55.61C91.15 56.455 91.835 57.14 92.68 57.14Z" fill="#43170D"/>
<path d="M79.23 57.14C80.075 57.14 80.76 56.455 80.76 55.61C80.76 54.765 80.075 54.08 79.23 54.08C78.385 54.08 77.7 54.765 77.7 55.61C77.7 56.455 78.385 57.14 79.23 57.14Z" fill="#43170D"/>
<path d="M85.95 56.5L87.77 58.11C88.25 58.53 88.52 59.14 88.52 59.77C88.52 60.94 87.62 61.9 86.46 61.99" stroke="#ED755E" stroke-width="0.84" stroke-linecap="round" stroke-linejoin="round"/>
<path d="M80.76 64.85C83.94 66.82 87.96 66.82 91.15 64.85" stroke="black" stroke-width="0.84" stroke-linecap="round" stroke-linejoin="round"/>
<path d="M87.24 69.38C86.4 69.62 85.52 69.62 84.68 69.38H84.66" stroke="#ED755E" stroke-width="0.84" stroke-linecap="round" stroke-linejoin="round"/>
<path d="M117.42 152.92V90.4L123.58 92.22C137.05 96.2 146.39 108.46 146.64 122.5L147.18 152.66C147.31 160.14 141.88 166.55 134.48 167.64C125.49 168.97 117.42 162.01 117.42 152.92Z" fill="#F43C00"/>
<path d="M54.57 152.92V90.4L48.41 92.22C34.94 96.19 25.6 108.45 25.35 122.5L24.81 152.65C24.68 160.13 30.11 166.54 37.51 167.63C46.5 168.96 54.57 162 54.57 152.91V152.92Z" fill="#FFB700"/>
<path d="M54.48 125.13L50.19 141.35" stroke="#A9543A" stroke-width="0.84" stroke-linecap="round" stroke-linejoin="round"/>
<path d="M59.3989 96.8867L79.2898 116.778C82.9959 120.484 89.0046 120.484 92.7107 116.778L93.0077 116.481C96.7138 112.775 96.7138 106.766 93.0077 103.06L73.1168 83.1688C69.4107 79.4627 63.402 79.4627 59.6959 83.1688L59.3989 83.4658C55.6928 87.1719 55.6928 93.1806 59.3989 96.8867Z" fill="#FFB700"/>
<path d="M56.72 89.77C56.61 92.38 57.56 95.03 59.55 97.03L79.15 116.63" stroke="#A9543A" stroke-width="0.84" stroke-linecap="round" stroke-linejoin="round"/>
<path d="M107.29 49.7C107.35 49.01 107.38 48.31 107.38 47.58C107.38 35.49 97.39 24.24 85.3 24.24C73.21 24.24 63.6 35.49 63.6 47.58C63.6 48.34 63.71 49.05 63.88 49.7H107.28H107.29Z" fill="#FF4B00"/>
<path d="M93.48 29.81C94.58 32.8 94.67 35.81 94.38 38.37C94.25 39.46 92.67 39.51 92.48 38.43C92 35.65 90.95 33.44 89.73 31.72C89.2 30.97 89.24 29.97 89.79 29.24C90.81 27.9 92.89 28.24 93.47 29.82L93.48 29.81Z" fill="#3E2832"/>
<path d="M77.52 29.81C76.42 32.8 76.33 35.81 76.62 38.37C76.75 39.46 78.33 39.51 78.52 38.43C79 35.65 80.05 33.44 81.27 31.72C81.8 30.97 81.76 29.97 81.21 29.24C80.19 27.9 78.11 28.24 77.53 29.82L77.52 29.81Z" fill="#3E2832"/>
<path d="M85.5 78.41C77.88 78.41 71.42 72.81 70.34 65.27L67.93 48.44H103.07L100.66 65.27C99.58 72.81 93.12 78.41 85.5 78.41Z" stroke="#FBC6A5" stroke-width="1.68" stroke-linecap="round" stroke-linejoin="round"/>
<path d="M100.84 65.44C101.619 65.44 102.25 64.8087 102.25 64.03C102.25 63.2513 101.619 62.62 100.84 62.62C100.061 62.62 99.43 63.2513 99.43 64.03C99.43 64.8087 100.061 65.44 100.84 65.44Z" fill="#A9543A"/>
<path d="M70.16 65.44C70.9387 65.44 71.57 64.8087 71.57 64.03C71.57 63.2513 70.9387 62.62 70.16 62.62C69.3813 62.62 68.75 63.2513 68.75 64.03C68.75 64.8087 69.3813 65.44 70.16 65.44Z" fill="#A9543A"/>
<path d="M107.4 46.89H63.59C62.7505 46.89 62.07 47.5705 62.07 48.41V48.47C62.07 49.3095 62.7505 49.99 63.59 49.99H107.4C108.239 49.99 108.92 49.3095 108.92 48.47V48.41C108.92 47.5705 108.239 46.89 107.4 46.89Z" fill="#FDE8DF"/>
<path d="M75.36 46.89C77.52 50.19 81.25 52.37 85.49 52.37C89.73 52.37 93.46 50.19 95.62 46.89H75.35H75.36Z" fill="#FDE8DF"/>
<path d="M82.07 37.8L81.81 38.79C80.55 43.56 76.24 46.89 71.31 46.89H71.29V49.99H99.71V46.89C94.78 46.89 90.47 43.58 89.2 38.82L88.93 37.79C88.52 36.24 87.11 35.16 85.51 35.16C83.9 35.16 82.49 36.24 82.08 37.8H82.07Z" fill="#FDE8DF"/>
<path d="M98.8926 83.1596L79.0017 103.051C75.2956 106.757 75.2956 112.765 79.0017 116.471L79.2987 116.768C83.0048 120.474 89.0135 120.474 92.7196 116.768L112.61 96.8775C116.317 93.1714 116.317 87.1627 112.61 83.4566L112.314 83.1596C108.607 79.4535 102.599 79.4535 98.8926 83.1596Z" fill="#FFB700"/>
<path d="M115.3 89.77C115.41 92.38 114.46 95.03 112.47 97.02L92.87 116.62C89.08 120.41 82.94 120.41 79.15 116.62C75.36 112.83 75.36 106.69 79.15 102.9L86.01 96.04" stroke="#A9543A" stroke-width="0.84" stroke-linecap="round" stroke-linejoin="round"/>
<path d="M49.04 178.5C64.29 178.5 76.65 166.14 76.65 150.89V82.99C76.65 79.79 74.06 77.2 70.86 77.2C67.66 77.2 65.07 79.79 65.07 82.99V150.89C65.07 159.75 57.89 166.92 49.04 166.92C45.84 166.92 43.25 169.51 43.25 172.71C43.25 175.91 45.84 178.5 49.04 178.5Z" fill="#FF4B00"/>
<path d="M65.08 133.19H76.65V128.35H65.08V133.19Z" fill="#3E2832"/>
<path d="M49.04 178.5C64.29 178.5 76.65 166.14 76.65 150.89V82.99" stroke="#3E2832" stroke-width="0.84" stroke-linecap="round" stroke-linejoin="round"/>
<path d="M65.07 82.99V150.89C65.07 159.75 57.89 166.92 49.04 166.92" fill="#FFB700"/>
<path d="M123.98 178.5C108.73 178.5 96.37 166.14 96.37 150.89V82.99C96.37 79.79 98.96 77.2 102.16 77.2C105.36 77.2 107.95 79.79 107.95 82.99V150.89C107.95 159.75 115.13 166.92 123.98 166.92C127.18 166.92 129.77 169.51 129.77 172.71C129.77 175.91 127.18 178.5 123.98 178.5Z" fill="#FF4B00"/>
<path d="M107.95 128.35H96.38V133.19H107.95V128.35Z" fill="#3E2832"/>
<path d="M123.98 178.5C108.73 178.5 96.37 166.14 96.37 150.89V82.99" stroke="#3E2832" stroke-width="0.84" stroke-linecap="round" stroke-linejoin="round"/>
<path d="M107.95 82.99V150.89C107.95 159.75 115.13 166.92 123.98 166.92" stroke="#3E2832" stroke-width="0.84" stroke-linecap="round" stroke-linejoin="round"/>
<path d="M127.45 76.1C127.45 76.1 126.33 89.47 126.19 92.9L126.28 93.15C126.61 94.06 126.99 94.96 127.42 95.83L128.41 97.83L128.74 98.49C129.08 99.24 129.57 100.48 129.49 101.42L145.14 102.08C145.14 102.08 145.26 100.92 145.84 99.29C145.84 99.27 145.86 99.25 145.87 99.23C145.91 99.12 145.95 99 145.99 98.88C146.26 98.12 146.57 97.27 146.57 97.27C147.23 95.43 147.87 92.36 148.27 90.28C148.54 88.87 148.64 87.43 148.57 86L148.28 80.33C148.21 79.02 147.23 77.94 145.93 77.76C145.35 77.68 144.78 77.79 144.3 78.04V77.69C144.22 76.38 143.23 75.3 141.93 75.12C140.35 74.9 138.93 76.07 138.83 77.66L138.75 79.7L138.64 76.9C138.57 75.59 137.59 74.51 136.29 74.33C134.71 74.11 133.29 75.28 133.19 76.87L133.37 79.26L132.92 76.11C132.85 74.8 131.87 73.72 130.57 73.54C128.99 73.32 127.57 74.49 127.47 76.08L127.45 76.1Z" fill="#FD9B8B"/>
<path d="M121.47 76.33C120.27 76.84 119.7 78.14 120.17 79.32L122.1 84.23L123.24 87.74C123.71 89.18 124.31 90.57 125.03 91.9L128.77 98.51L135.21 95.31C136.1 95.02 136.46 93.94 135.9 93.18L126.27 79.89L124.74 77.38C124.1 76.28 122.67 75.81 121.47 76.32" fill="#FD9B8B"/>
<path d="M137.57 92.77H137.21C132.83 92.77 129.28 96.3204 129.28 100.7V101.06C129.28 105.44 132.83 108.99 137.21 108.99H137.57C141.95 108.99 145.5 105.44 145.5 101.06V100.7C145.5 96.3204 141.95 92.77 137.57 92.77Z" fill="#823922"/>
<path d="M153.03 87.67C154.17 89.95 152.51 92.64 149.96 92.64H99.2C96.65 92.64 94.99 89.96 96.13 87.68L98.24 83.44C98.82 82.27 100.01 81.54 101.31 81.54H147.83C149.13 81.54 150.32 82.27 150.9 83.44L153.02 87.68L153.03 87.67Z" fill="#FDC8A7"/>
<path d="M106.5 87.67C107.64 89.95 105.98 92.64 103.43 92.64H99.2C96.65 92.64 94.99 89.96 96.13 87.68L98.24 83.44C98.82 82.27 100.01 81.54 101.31 81.54C102.61 81.54 103.8 82.27 104.38 83.44L106.5 87.68V87.67Z" fill="#FFA46F"/>
<path d="M153.72 103.62L147.84 92.63H101.31V155.49H147.9C156.21 155.49 162.95 148.75 162.95 140.44C162.95 127.59 159.78 114.95 153.73 103.62H153.72Z" fill="#FDC8A7"/>
<path d="M101.26 155.49C92.95 155.49 86.21 148.75 86.21 140.44C86.21 127.59 89.38 114.95 95.43 103.62L101.31 92.63L107.3 103.99C113.14 115.08 116.23 127.42 116.3 139.96V140.36C116.35 148.7 109.6 155.49 101.26 155.49Z" fill="#FFA46F"/>
<path d="M111.68 151.32L101.31 142.18L90.92 151.34" stroke="#A9543A" stroke-width="0.84" stroke-linecap="round" stroke-linejoin="round"/>
<path d="M128.62 115.85H142.6C144.42 115.85 145.7 114.07 145.13 112.34C142.86 105.56 140.03 98.97 136.63 92.63H117.05C120.72 99.49 123.73 106.64 126.08 113.99C126.43 115.1 127.46 115.85 128.62 115.85Z" fill="#FC8032"/>
<path d="M101.31 92.63H147.84" stroke="#A9543A" stroke-width="0.84" stroke-linecap="round" stroke-linejoin="round"/>
<path d="M162.94 140.44C162.94 133.26 161.95 126.13 160.01 119.27C161.52 138.8 146.08 155.49 126.49 155.49H147.89C156.2 155.49 162.94 148.75 162.94 140.44Z" fill="#FFA46F"/>
<path d="M101.31 100.88V142.18" stroke="#A9543A" stroke-width="0.84" stroke-linecap="round" stroke-linejoin="round"/>
<path d="M120.07 167.42L127.05 165.42C128.71 164.95 130.33 164.35 131.91 163.65L139.43 160.29C140.83 159.66 141.44 158.01 140.79 156.62C140.18 155.33 138.68 154.72 137.34 155.22L128.52 158.56L119.78 160.13C117.73 160.5 116.58 162.7 117.45 164.59L118.4 166.64C118.69 167.27 119.4 167.59 120.06 167.4L120.07 167.42Z" fill="#FD9B8B"/>
<path d="M120.92 167.17C113.54 170.87 105.71 173.57 97.62 175.22L96.5 175.45L94.8 159.37L97.71 159.3C99.23 159.26 100.64 158.52 101.53 157.29C103.11 155.09 105.8 153.96 108.48 154.37C111.15 154.77 114.24 155.24 115.24 155.39C115.39 155.41 115.54 155.44 115.69 155.46C117.63 155.75 119.56 156.05 121.5 156.34C122.18 156.44 122.83 156.8 123.38 157.29C125.11 158.84 125.34 161.29 124.01 163.07L120.93 167.19L120.92 167.17Z" fill="#FD9B8B"/>
<path d="M135.58 153.23C134.67 152.19 133.04 152.11 131.89 153.06L128.18 156.11L119.88 157.48C117.97 157.8 116.65 159.56 116.89 161.48C117.17 163.74 118.9 165.77 121.06 165.06C123.18 164.39 125.3 163.71 127.42 163.04C130.82 161.96 132.93 159.32 135.31 156.84C135.32 156.83 135.37 156.8 135.37 156.78C136.35 155.76 136.44 154.22 135.57 153.23H135.58Z" fill="#FD9B8B"/>
<path d="M134.57 157.63L134.32 157.92C131.28 161.41 127.37 164.02 122.99 165.49" stroke="#ED755E" stroke-width="0.84" stroke-linecap="round"/>
<path d="M114.12 163.82C115.48 163.39 116.83 162.96 118.19 162.53C119.05 162.26 119.9 161.99 120.76 161.71C121.04 161.62 121.32 161.53 121.6 161.44C124.01 160.69 125.58 158.68 127.25 156.93C127.63 156.53 128.02 156.13 128.4 155.73C129.38 154.71 129.47 153.17 128.6 152.18C127.69 151.14 126.06 151.06 124.91 152.01C124.75 152.14 124.18 152.62 123.48 153.22C121.31 155.06 118.45 155.87 115.64 155.44L112.7 154.99L114.1 163.81L114.12 163.82Z" fill="#FD9B8B"/>
<path d="M128.17 156.11C128.17 156.11 128.05 156.23 127.84 156.42C124.52 159.61 120.53 162.03 116.16 163.49" stroke="#ED755E" stroke-width="0.84" stroke-linecap="round"/>
<path d="M86.9472 167.336L86.9494 167.696C86.9762 172.076 90.5482 175.604 94.9277 175.577L95.2877 175.575C99.6673 175.548 103.196 171.976 103.169 167.597L103.167 167.237C103.14 162.857 99.5682 159.329 95.1886 159.355L94.8287 159.358C90.4491 159.384 86.9205 162.956 86.9472 167.336Z" fill="#FD9B8B"/>
<path d="M101.86 156.84L109.3 147.61C109.95 146.8 111.01 146.45 112.02 146.7C113.74 147.13 114.57 149.09 113.68 150.62C112.52 152.61 113.74 155.15 116.02 155.49L116.93 155.62L116.42 159.03L101.86 156.84Z" fill="#FD9B8B"/>
<path d="M127.42 76.9L128.75 83.76C128.96 84.96 130.08 85.79 131.33 85.7C132.62 85.6 133.6 84.55 133.59 83.31L133.68 84.41C133.77 85.62 134.79 86.58 136.04 86.62C137.35 86.66 138.46 85.7 138.56 84.45V84.87C138.52 86.08 139.41 87.13 140.61 87.29C141.38 87.39 142.11 87.11 142.61 86.59C142.9 87.16 143.43 87.6 144.08 87.78C145.33 88.12 146.63 87.39 146.98 86.13L148.12 82.04L148.29 81.42L148.24 80.37C148.18 79.06 147.19 77.98 145.89 77.8C145.31 77.72 144.74 77.83 144.26 78.08V77.73C144.18 76.42 143.2 75.34 141.9 75.16C140.32 74.94 138.89 76.1 138.79 77.69L138.7 79.73L138.6 76.93C138.54 75.62 137.55 74.54 136.25 74.36C134.67 74.14 133.24 75.3 133.14 76.89L133.31 79.28L132.87 76.12C132.81 74.81 131.82 73.73 130.52 73.55C128.94 73.33 127.51 74.49 127.41 76.08L127.39 76.89L127.42 76.9Z" fill="#FD9B8B"/>
<path d="M142.63 86.58C142.97 86.23 143.2 85.77 143.27 85.26L144.03 79.56L144.23 78.07" stroke="#ED755E" stroke-width="0.84" stroke-linecap="round"/>
<path d="M138.72 77.3L138.57 84.87" stroke="#ED755E" stroke-width="0.84" stroke-linecap="round"/>
<path d="M133.05 76.51L133.64 83.8" stroke="#ED755E" stroke-width="0.84" stroke-linecap="round"/>
<path d="M127.75 78.67L128.25 81.18" stroke="#ED755E" stroke-width="0.84" stroke-linecap="round"/>
<path d="M34.25 166.96L74.39 182.74C83.4 186.28 93.28 180.16 94.13 170.52C94.68 164.22 91.08 158.28 85.24 155.86L45.39 139.36C38.48 136.5 30.52 139.21 26.8 145.69C22.27 153.57 25.8 163.62 34.26 166.95L34.25 166.96Z" fill="#FFB700"/>
<path d="M85.24 155.86L45.38 139.36" stroke="#A9543A" stroke-width="0.84" stroke-linecap="round" stroke-linejoin="round"/>
</g>
</svg>
