<svg width="192" height="192" viewBox="0 0 192 192" fill="none" xmlns="http://www.w3.org/2000/svg">
<path d="M114.78 45.62L124.85 47.98C142.28 52.07 155.87 66.02 158.95 83.66C162.56 104.29 158.03 126.89 149.54 128.68L118.32 146.64" stroke="#3E2832" stroke-width="6" stroke-linecap="round" stroke-linejoin="round"/>
<path d="M120.76 128.66V142.55C120.77 145.25 123.69 146.94 126.03 145.6L136.81 139.44C139.03 138.17 139.2 135.02 137.11 133.53L126.32 125.8C123.99 124.13 120.75 125.8 120.76 128.66Z" fill="#3E2832"/>
<path d="M107.81 30.41H52.86C45.7079 30.41 39.91 36.2079 39.91 43.36V150.37C39.91 157.522 45.7079 163.32 52.86 163.32H107.81C114.962 163.32 120.76 157.522 120.76 150.37V43.36C120.76 36.2079 114.962 30.41 107.81 30.41Z" fill="#FF4B00"/>
<path d="M36.61 113.71L45.35 113.73C49.55 113.73 52.94 117.14 52.93 121.34L52.85 163.33H36.6C32.4 163.33 29 159.93 29 155.73V121.31C29 117.11 32.41 113.71 36.61 113.71Z" fill="#FF4B00"/>
<path d="M39.91 114L120.76 114.15" stroke="#3E2832" stroke-width="1.2" stroke-linecap="round" stroke-linejoin="round"/>
<path d="M120.76 120.87L39.91 120.73" stroke="#3E2832" stroke-width="1.2" stroke-linecap="round" stroke-linejoin="round"/>
<path d="M80.41 95.4C85.56 95.25 89.65 91.16 89.72 86.07V81.7L95.39 81.71V86.55C95.26 94.42 88.41 100.61 80.4 100.77C72.26 100.7 65.38 94.44 65.28 86.49L65.3 77.8C65.29 76.91 65.87 76.34 66.74 76.35L89.73 76.39V81.7L71.69 81.67C71.23 81.67 70.95 81.95 70.95 82.41V85.95C71 91.11 75.14 95.34 80.41 95.4Z" fill="#FDE8DF"/>
<path d="M120.75 62.96H39.91L39.92 56.23H120.76L120.75 62.96Z" fill="#FDE8DF"/>
<path d="M97.04 134.31H63.63C61.77 134.31 60.27 132.8 60.27 130.94C60.27 129.09 61.78 127.58 63.63 127.58H97.04C98.9 127.58 100.4 129.09 100.4 130.95C100.4 132.8 98.89 134.31 97.04 134.31Z" fill="#FDE8DF"/>
<path d="M107.81 30.41C114.96 30.41 120.76 36.21 120.76 43.36V150.38C120.76 157.53 114.96 163.33 107.81 163.33" stroke="#3E2832" stroke-width="1.2" stroke-linecap="round" stroke-linejoin="round"/>
<path d="M90.5 56.23V30.41C90.5 28.53 92.02 27 93.91 27C95.79 27 97.32 28.53 97.32 30.41V56.24H90.5V56.23Z" fill="#3E2832"/>
<path d="M70.17 30.41V56.24H63.35V30.41C63.35 28.53 64.88 27 66.76 27C68.64 27 70.17 28.53 70.17 30.41Z" fill="#3E2832"/>
<path d="M66.77 49.33H93.9V42.56H66.77V49.33Z" fill="#3E2832"/>
<path d="M52.86 163.32C45.71 163.32 39.91 157.52 39.91 150.37V114" stroke="#3E2832" stroke-width="1.2" stroke-linecap="round" stroke-linejoin="round"/>
<path d="M150.75 96.9C151.89 99.18 150.23 101.87 147.68 101.87H96.92C94.37 101.87 92.71 99.19 93.85 96.91L95.96 92.67C96.54 91.5 97.73 90.77 99.03 90.77H145.55C146.85 90.77 148.04 91.5 148.62 92.67L150.74 96.91L150.75 96.9Z" fill="#FDC8A7"/>
<path d="M104.22 96.9C105.36 99.18 103.7 101.87 101.15 101.87H96.92C94.37 101.87 92.71 99.19 93.85 96.91L95.96 92.67C96.54 91.5 97.73 90.77 99.03 90.77C100.33 90.77 101.52 91.5 102.1 92.67L104.22 96.91V96.9Z" fill="#FFA46F"/>
<path d="M151.44 112.86L145.56 101.87H99.03V164.73H145.62C153.93 164.73 160.67 157.99 160.67 149.68C160.67 136.83 157.5 124.19 151.45 112.86H151.44Z" fill="#FDC8A7"/>
<path d="M98.98 164.73C90.67 164.73 83.93 157.99 83.93 149.68C83.93 136.83 87.1 124.19 93.15 112.86L99.03 101.87L105.02 113.23C110.86 124.32 113.95 136.66 114.02 149.2V149.6C114.07 157.94 107.32 164.73 98.98 164.73Z" fill="#FFA46F"/>
<path d="M109.4 160.55L99.03 151.41L88.64 160.58" stroke="#A9543A" stroke-width="0.84" stroke-linecap="round" stroke-linejoin="round"/>
<path d="M126.34 125.09H140.32C142.14 125.09 143.42 123.31 142.85 121.58C140.58 114.8 137.75 108.21 134.35 101.87H114.77C118.44 108.73 121.45 115.88 123.8 123.23C124.15 124.34 125.18 125.09 126.34 125.09Z" fill="#FC8032"/>
<path d="M99.03 101.87H145.56" stroke="#A9543A" stroke-width="0.84" stroke-linecap="round" stroke-linejoin="round"/>
<path d="M160.66 149.68C160.66 142.5 159.67 135.37 157.73 128.51C159.24 148.04 143.8 164.73 124.21 164.73H145.61C153.92 164.73 160.66 157.99 160.66 149.68Z" fill="#FFA46F"/>
<path d="M99.03 110.12V151.41" stroke="#A9543A" stroke-width="0.84" stroke-linecap="round" stroke-linejoin="round"/>
</svg>
