<svg width="192" height="192" viewBox="0 0 192 192" fill="none" xmlns="http://www.w3.org/2000/svg">
<path d="M122.158 29H72.8084C65.6384 29 59.8184 34.81 59.8184 41.99V125.86C70.5984 133.06 83.5484 137.26 97.4784 137.26C111.408 137.26 124.358 133.06 135.138 125.86V41.99C135.138 34.82 129.328 29 122.148 29H122.158Z" fill="#FF4700"/>
<path d="M122.158 35.23H72.8084C69.0884 35.23 66.0584 38.26 66.0584 41.98V129.55C75.4584 134.47 86.1484 137.25 97.4884 137.25C108.828 137.25 119.518 134.46 128.918 129.55V41.99C128.918 38.27 125.888 35.24 122.168 35.24L122.158 35.23Z" fill="#FFDDD2"/>
<path d="M102.428 38.35H92.5584C91.6969 38.35 90.9984 39.0484 90.9984 39.91C90.9984 40.7716 91.6969 41.47 92.5584 41.47H102.428C103.29 41.47 103.988 40.7716 103.988 39.91C103.988 39.0484 103.29 38.35 102.428 38.35Z" fill="#FF4700"/>
<path d="M57.8484 79.7C57.8484 82.89 55.2584 85.47 52.0784 85.47V101.76C52.0784 102.68 52.6284 103.51 53.4884 103.85C75.5384 112.66 100.138 112.66 122.188 103.85C123.038 103.51 123.598 102.68 123.598 101.76V85.47C120.408 85.47 117.828 82.88 117.828 79.7C117.828 76.52 120.418 73.93 123.598 73.93V59.33C123.598 57.81 122.138 56.73 120.688 57.17C99.5284 63.48 76.1584 63.48 54.9984 57.17C53.5484 56.74 52.0884 57.82 52.0884 59.33V73.93C55.2784 73.93 57.8584 76.52 57.8584 79.7H57.8484Z" fill="#00A125"/>
<path d="M91.3884 110.4C101.858 110 112.278 107.82 122.188 103.86C123.038 103.52 123.598 102.69 123.598 101.77V85.48C120.408 85.48 117.828 82.89 117.828 79.71C117.828 76.53 120.418 73.94 123.598 73.94V59.34C123.598 58.62 123.268 58 122.768 57.59C117.138 77.97 106.148 96.11 91.3984 110.4H91.3884Z" fill="#00A95A"/>
<path d="M77.9284 82.79C81.093 82.79 83.6584 80.2246 83.6584 77.06C83.6584 73.8954 81.093 71.33 77.9284 71.33C74.7638 71.33 72.1984 73.8954 72.1984 77.06C72.1984 80.2246 74.7638 82.79 77.9284 82.79Z" stroke="#FDEDE1" stroke-width="1.26" stroke-linecap="round" stroke-linejoin="round"/>
<path d="M97.7384 96.69C100.903 96.69 103.468 94.1246 103.468 90.96C103.468 87.7954 100.903 85.23 97.7384 85.23C94.5738 85.23 92.0084 87.7954 92.0084 90.96C92.0084 94.1246 94.5738 96.69 97.7384 96.69Z" stroke="#FDEDE1" stroke-width="1.26" stroke-linecap="round" stroke-linejoin="round"/>
<path d="M76.5484 99.37L98.4284 68.17" stroke="#FDEDE1" stroke-width="1.26" stroke-linecap="round" stroke-linejoin="round"/>
<path d="M114.908 89.04C122.168 92.74 132.778 89.04 140.878 79.19C150.658 67.31 153.078 50.99 146.288 42.75L138.728 37.72L106.338 83.84L114.898 89.04H114.908Z" fill="#F93D00"/>
<path d="M135.118 75.97C125.338 87.85 111.898 90.79 105.108 82.54C98.3184 74.29 100.738 57.97 110.518 46.1C120.298 34.23 133.738 31.28 140.528 39.53C147.318 47.78 144.898 64.1 135.118 75.97Z" fill="#FFAD00"/>
<path d="M108.728 85.59L144.318 50C144.248 48.99 144.128 48.01 143.938 47.06L106.778 84.22C107.398 84.74 108.048 85.2 108.738 85.59H108.728Z" fill="#FFB800"/>
<path d="M115.268 80.15C113.268 80.15 111.738 79.46 110.568 78.05C106.498 73.11 107.728 60.62 115.978 50.6C121.248 44.2 126.868 41.92 130.368 41.92C132.368 41.92 133.898 42.61 135.068 44.02C139.138 48.96 137.908 61.45 129.658 71.47C124.388 77.87 118.768 80.15 115.268 80.15Z" stroke="#EB5302" stroke-width="0.71" stroke-linecap="round" stroke-linejoin="round"/>
<mask id="mask0_23_546" style="mask-type:luminance" maskUnits="userSpaceOnUse" x="30" y="151" width="18" height="13">
<path d="M47.3684 163.92L38.1584 163.89C34.1584 163.89 30.9084 158.39 30.9084 151.6L47.6084 151.35L47.3784 163.91L47.3684 163.92Z" fill="white"/>
</mask>
<g mask="url(#mask0_23_546)">
<path d="M47.9585 151H30.5485V164.28H47.9585V151Z" fill="#0C0909"/>
</g>
<mask id="mask1_23_546" style="mask-type:luminance" maskUnits="userSpaceOnUse" x="39" y="139" width="16" height="25">
<path d="M54.8685 151.63C54.8685 158.42 51.4485 163.92 47.2385 163.92C43.0285 163.92 39.6085 158.42 39.6085 151.63C39.6085 144.84 43.0285 139.34 47.2385 139.34C51.4485 139.34 54.8685 144.84 54.8685 151.63Z" fill="white"/>
</mask>
<g mask="url(#mask1_23_546)">
<path d="M55.2285 138.99H39.2585V164.28H55.2285V138.99Z" fill="#191614"/>
</g>
<mask id="mask2_23_546" style="mask-type:luminance" maskUnits="userSpaceOnUse" x="29" y="145" width="6" height="8">
<path d="M34.1984 149.3C34.1984 151.3 33.1884 152.93 31.9484 152.93C30.7084 152.93 29.6984 151.31 29.6984 149.3C29.6984 147.29 30.7084 145.67 31.9484 145.67C33.1884 145.67 34.1984 147.29 34.1984 149.3Z" fill="white"/>
</mask>
<g mask="url(#mask2_23_546)">
<path d="M34.5584 145.31H29.3384V153.28H34.5584V145.31Z" fill="black"/>
</g>
<mask id="mask3_23_546" style="mask-type:luminance" maskUnits="userSpaceOnUse" x="129" y="139" width="17" height="25">
<path d="M145.528 163.94C145.528 163.94 140.978 163.91 136.978 163.91C132.978 163.91 129.728 158.41 129.728 151.62C129.728 144.83 132.978 139.33 136.978 139.33C138.698 139.33 145.768 139.11 145.768 139.11L145.538 163.93L145.528 163.94Z" fill="white"/>
</mask>
<g mask="url(#mask3_23_546)">
<path d="M146.118 138.76H129.368V164.3H146.118V138.76Z" fill="#0C0909"/>
</g>
<mask id="mask4_23_546" style="mask-type:luminance" maskUnits="userSpaceOnUse" x="84" y="139" width="18" height="25">
<path d="M100.948 163.92L91.7385 163.89C87.7385 163.89 84.4885 158.39 84.4885 151.6C84.4885 144.81 87.7385 139.31 91.7385 139.31C93.4585 139.31 101.188 139.09 101.188 139.09L100.958 163.91L100.948 163.92Z" fill="white"/>
</mask>
<g mask="url(#mask4_23_546)">
<path d="M101.538 138.74H84.1285V164.28H101.538V138.74Z" fill="#0C0909"/>
</g>
<mask id="mask5_23_546" style="mask-type:luminance" maskUnits="userSpaceOnUse" x="24" y="113" width="136" height="46">
<path d="M154.898 130.87C151.218 126.74 147.788 123.43 147.098 122.77C142.698 118.33 136.828 115.32 130.258 114.51C129.628 114.39 128.908 114.29 128.098 114.24C116.928 113.46 104.858 113.86 97.3584 114.28C93.5384 114.45 89.3984 114.74 84.9484 115.41C79.5984 116.23 74.3984 117.82 69.4984 120.08L54.3584 127.08L37.9584 129.73C29.0384 131.59 23.1584 139.74 24.0984 148.81L24.1284 149.04L24.2084 149.61C24.2084 149.61 24.2484 149.64 24.2584 149.65C24.5384 151.54 25.1284 153.32 25.9684 154.96C26.0484 155.12 26.1284 155.28 26.2184 155.43C27.3784 157.4 29.5284 158.72 31.9984 158.72C32.0584 158.72 32.1184 158.72 32.1684 158.72V158.77H54.3284C65.1084 158.82 78.4184 158.8 92.1584 158.77H136.518C136.518 158.77 136.578 158.79 136.608 158.8H145.518C147.138 158.8 148.728 158.41 150.148 157.66C155.628 154.77 159.368 149.04 159.368 142.44C159.368 137.97 157.658 133.91 154.848 130.85" fill="white"/>
</mask>
<g mask="url(#mask5_23_546)">
<path d="M159.768 113.1H22.8085V159.19H159.768V113.1Z" fill="#FF5F00"/>
</g>
<mask id="mask6_23_546" style="mask-type:luminance" maskUnits="userSpaceOnUse" x="24" y="113" width="136" height="46">
<path d="M97.3584 114.28C93.5384 114.45 89.3984 114.74 84.9484 115.41C79.5984 116.23 74.3984 117.82 69.4984 120.08L54.3584 127.08L37.9584 129.73C29.0384 131.59 23.1584 139.74 24.0984 148.81L24.1284 149.04L24.2084 149.61C24.2084 149.61 24.2484 149.64 24.2584 149.65C24.5384 151.54 25.1284 153.32 25.9684 154.96C26.0484 155.12 26.1284 155.28 26.2184 155.43C27.3784 157.4 29.5284 158.72 31.9984 158.72C32.0584 158.72 32.1184 158.72 32.1684 158.72V158.77H54.3284C65.1084 158.82 78.4184 158.8 92.1584 158.77H136.518C136.518 158.77 136.578 158.79 136.608 158.8H145.518C147.138 158.8 148.728 158.41 150.148 157.66C155.628 154.77 159.368 149.04 159.368 142.44C159.368 137.97 157.658 133.91 154.848 130.85C151.168 126.72 147.738 123.41 147.048 122.75C142.648 118.31 136.778 115.3 130.208 114.49C129.578 114.37 128.858 114.27 128.048 114.22C123.428 113.9 118.648 113.78 114.108 113.78C107.668 113.78 101.708 114.02 97.3084 114.27L97.3584 114.28Z" fill="white"/>
</mask>
<g mask="url(#mask6_23_546)">
<mask id="mask7_23_546" style="mask-type:luminance" maskUnits="userSpaceOnUse" x="26" y="109" width="146" height="68">
<path d="M171.878 146.98L160.888 135.68C161.058 134.58 161.148 133.45 161.148 132.3C161.148 119.89 150.958 109.83 138.378 109.83C134.428 109.83 129.958 110.88 125.768 112.7C118.048 114.18 111.888 119.99 109.998 127.46L109.958 127.43V127.45H109.518L106.488 127.38L109.638 128.18L109.218 132.53C108.168 132.34 107.078 132.24 105.968 132.24C96.2084 132.24 88.2884 140.06 88.2984 149.7C88.2984 150.09 88.3084 150.48 88.3384 150.86C88.3384 150.86 88.3284 150.86 88.3184 150.86C88.3184 150.96 88.3184 151.05 88.3184 151.15C88.3184 154.57 85.6984 157.39 82.3284 157.75L82.3084 157.78H81.7984C81.7284 157.78 81.6684 157.78 81.5984 157.78C81.5284 157.78 81.4684 157.78 81.3984 157.78L26.9484 157.81V176.23L108.228 176.19V166.98C112.708 166.42 116.668 164.19 119.458 160.95L171.878 160.92V146.96V146.98Z" fill="white"/>
</mask>
<g mask="url(#mask7_23_546)">
<path d="M159.768 113.44H26.5984V159.19H159.768V113.44Z" fill="#F55A23"/>
</g>
</g>
<mask id="mask8_23_546" style="mask-type:luminance" maskUnits="userSpaceOnUse" x="136" y="156" width="5" height="4">
<path d="M138.398 156.85C138.458 157.15 138.438 157.46 138.328 157.76C138.068 158.41 137.438 158.8 136.768 158.78V159.96H140.158V156.84H138.398V156.85Z" fill="white"/>
</mask>
<g mask="url(#mask8_23_546)">
<path d="M140.518 156.5H136.408V160.34H140.518V156.5Z" fill="black"/>
</g>
<mask id="mask9_23_546" style="mask-type:luminance" maskUnits="userSpaceOnUse" x="137" y="139" width="16" height="25">
<path d="M152.948 151.66C152.948 158.45 149.528 163.95 145.318 163.95C141.108 163.95 137.688 158.45 137.688 151.66C137.688 144.87 141.108 139.37 145.318 139.37C149.528 139.37 152.948 144.87 152.948 151.66Z" fill="white"/>
</mask>
<g mask="url(#mask9_23_546)">
<path d="M153.298 139.01H137.328V164.3H153.298V139.01Z" fill="#191614"/>
</g>
<mask id="mask10_23_546" style="mask-type:luminance" maskUnits="userSpaceOnUse" x="141" y="145" width="8" height="14">
<path d="M148.848 151.66C148.848 155.29 147.268 158.23 145.308 158.23C143.348 158.23 141.768 155.29 141.768 151.66C141.768 148.03 143.348 145.09 145.308 145.09C147.268 145.09 148.848 148.03 148.848 151.66Z" fill="white"/>
</mask>
<g mask="url(#mask10_23_546)">
<path d="M149.208 144.73H141.418V158.59H149.208V144.73Z" fill="#2B2B2B"/>
</g>
<mask id="mask11_23_546" style="mask-type:luminance" maskUnits="userSpaceOnUse" x="141" y="144" width="9" height="15">
<path d="M145.318 158.61C143.118 158.61 141.388 155.55 141.388 151.65C141.388 147.75 143.108 144.69 145.318 144.69C147.528 144.69 149.248 147.75 149.248 151.65C149.248 155.55 147.528 158.61 145.318 158.61ZM145.318 145.47C143.608 145.47 142.168 148.3 142.168 151.66C142.168 155.02 143.608 157.85 145.318 157.85C147.028 157.85 148.468 155.02 148.468 151.66C148.468 148.3 147.028 145.47 145.318 145.47Z" fill="white"/>
</mask>
<g mask="url(#mask11_23_546)">
<path d="M149.598 144.34H141.028V158.97H149.598V144.34Z" fill="#F57D40"/>
</g>
<mask id="mask12_23_546" style="mask-type:luminance" maskUnits="userSpaceOnUse" x="92" y="139" width="17" height="25">
<path d="M108.258 151.63C108.258 158.42 104.838 163.92 100.628 163.92C96.4184 163.92 92.9984 158.42 92.9984 151.63C92.9984 144.84 96.4184 139.34 100.628 139.34C104.838 139.34 108.258 144.84 108.258 151.63Z" fill="white"/>
</mask>
<g mask="url(#mask12_23_546)">
<path d="M108.618 138.99H92.6484V164.28H108.618V138.99Z" fill="#191614"/>
</g>
<mask id="mask13_23_546" style="mask-type:luminance" maskUnits="userSpaceOnUse" x="97" y="145" width="8" height="14">
<path d="M104.168 151.63C104.168 155.26 102.588 158.2 100.628 158.2C98.6684 158.2 97.0884 155.26 97.0884 151.63C97.0884 148 98.6684 145.06 100.628 145.06C102.588 145.06 104.168 148 104.168 151.63Z" fill="white"/>
</mask>
<g mask="url(#mask13_23_546)">
<path d="M104.528 144.7H96.7385V158.56H104.528V144.7Z" fill="#2B2B2B"/>
</g>
<mask id="mask14_23_546" style="mask-type:luminance" maskUnits="userSpaceOnUse" x="96" y="144" width="9" height="15">
<path d="M100.628 158.59C98.4284 158.59 96.6984 155.53 96.6984 151.63C96.6984 147.73 98.4184 144.67 100.628 144.67C102.838 144.67 104.558 147.73 104.558 151.63C104.558 155.53 102.838 158.59 100.628 158.59ZM100.628 145.44C98.9184 145.44 97.4784 148.27 97.4784 151.63C97.4784 154.99 98.9184 157.82 100.628 157.82C102.338 157.82 103.778 154.99 103.778 151.63C103.778 148.27 102.338 145.44 100.628 145.44Z" fill="white"/>
</mask>
<g mask="url(#mask14_23_546)">
<path d="M104.918 144.32H96.3484V158.95H104.918V144.32Z" fill="#F57D40"/>
</g>
<mask id="mask15_23_546" style="mask-type:luminance" maskUnits="userSpaceOnUse" x="92" y="156" width="4" height="4">
<path d="M93.6984 156.8C93.7584 157.1 93.7384 157.41 93.6284 157.72C93.3684 158.37 92.7384 158.76 92.0684 158.74V159.92H95.4584V156.8H93.6984Z" fill="white"/>
</mask>
<g mask="url(#mask15_23_546)">
<path d="M95.8184 156.45H91.7084V160.29H95.8184V156.45Z" fill="black"/>
</g>
<mask id="mask16_23_546" style="mask-type:luminance" maskUnits="userSpaceOnUse" x="24" y="113" width="136" height="46">
<path d="M97.3584 114.28C93.5384 114.45 89.3984 114.74 84.9484 115.41C79.5984 116.23 74.3984 117.82 69.4984 120.08L54.3584 127.08L37.9584 129.73C29.0384 131.59 23.1584 139.74 24.0984 148.81L24.1284 149.04L24.2084 149.61C24.2084 149.61 24.2484 149.64 24.2584 149.65C24.5384 151.54 25.1284 153.32 25.9684 154.96C26.0484 155.12 26.1284 155.28 26.2184 155.43C27.3784 157.4 29.5284 158.72 31.9984 158.72C32.0584 158.72 32.1184 158.72 32.1684 158.72V158.77H54.3284C65.1084 158.82 78.4184 158.8 92.1584 158.77H136.518C136.518 158.77 136.578 158.79 136.608 158.8H147.468C154.378 156.54 159.368 150.07 159.368 142.45C159.368 137.98 157.658 133.92 154.848 130.86C151.168 126.73 147.738 123.42 147.048 122.76C142.648 118.32 136.778 115.31 130.208 114.5C129.578 114.38 128.858 114.28 128.048 114.23C123.428 113.91 118.648 113.79 114.108 113.79C107.668 113.79 101.708 114.03 97.3084 114.28" fill="white"/>
</mask>
<g mask="url(#mask16_23_546)">
<mask id="mask17_23_546" style="mask-type:luminance" maskUnits="userSpaceOnUse" x="44" y="116" width="96" height="11">
<path d="M139.228 124.07C136.348 119.62 131.468 116.55 125.838 116.09C125.838 116.09 125.818 116.08 125.818 116.07C125.418 116.04 125.018 116.03 124.618 116.03H124.388L44.9885 116.07V126.61H108.208H137.988C137.988 126.61 137.988 126.61 137.988 126.6C138.608 126.57 139.178 126.19 139.418 125.58C139.628 125.06 139.538 124.49 139.228 124.07Z" fill="white"/>
</mask>
<g mask="url(#mask17_23_546)">
<path d="M139.978 115.68H44.6285V126.98H139.978V115.68Z" fill="#0C0909"/>
</g>
</g>
<mask id="mask18_23_546" style="mask-type:luminance" maskUnits="userSpaceOnUse" x="24" y="113" width="136" height="46">
<path d="M97.3584 114.28C93.5384 114.45 89.3984 114.74 84.9484 115.41C79.5984 116.23 74.3984 117.82 69.4984 120.08L54.3584 127.08L37.9584 129.73C29.0384 131.59 23.1584 139.74 24.0984 148.81L24.1284 149.04L24.2084 149.61C24.2084 149.61 24.2484 149.64 24.2584 149.65C24.5384 151.54 25.1284 153.32 25.9684 154.96C26.0484 155.12 26.1284 155.28 26.2184 155.43C27.3784 157.4 29.5284 158.72 31.9984 158.72C32.0584 158.72 32.1184 158.72 32.1684 158.72V158.77H54.3284C65.1084 158.82 78.4184 158.8 92.1584 158.77H136.518C136.518 158.77 136.578 158.79 136.608 158.8H147.468C154.378 156.54 159.368 150.07 159.368 142.45C159.368 137.98 157.658 133.92 154.848 130.86C151.168 126.73 147.738 123.42 147.048 122.76C142.648 118.32 136.778 115.31 130.208 114.5C129.578 114.38 128.858 114.28 128.048 114.23C123.428 113.91 118.648 113.79 114.108 113.79C107.668 113.79 101.708 114.03 97.3084 114.28H97.3584Z" fill="white"/>
</mask>
<g mask="url(#mask18_23_546)">
<mask id="mask19_23_546" style="mask-type:luminance" maskUnits="userSpaceOnUse" x="22" y="129" width="138" height="12">
<path d="M159.418 129.91H22.5784V140.3H159.418V129.91Z" fill="white"/>
</mask>
<g mask="url(#mask19_23_546)">
<mask id="mask20_23_546" style="mask-type:luminance" maskUnits="userSpaceOnUse" x="149" y="130" width="11" height="5">
<path d="M157.988 130.11H149.878C149.928 132.27 151.708 134.02 153.908 134.03H159.368V130.11H157.988Z" fill="white"/>
</mask>
<g mask="url(#mask20_23_546)">
<mask id="mask21_23_546" style="mask-type:luminance" maskUnits="userSpaceOnUse" x="22" y="113" width="138" height="46">
<path d="M159.418 113.79H22.9384V158.92H159.418V113.79Z" fill="white"/>
</mask>
<g mask="url(#mask21_23_546)">
<path d="M159.718 129.75H149.508V134.39H159.718V129.75Z" fill="#D63030"/>
</g>
</g>
<mask id="mask22_23_546" style="mask-type:luminance" maskUnits="userSpaceOnUse" x="23" y="135" width="18" height="6">
<path d="M24.9784 140.03H40.6084C40.5984 137.37 38.4084 135.21 35.6984 135.21H28.6984C26.9084 135.21 25.2684 135.88 24.0184 136.99C22.8684 138.01 23.4984 139.88 24.9684 140.03" fill="white"/>
</mask>
<g mask="url(#mask22_23_546)">
<mask id="mask23_23_546" style="mask-type:luminance" maskUnits="userSpaceOnUse" x="22" y="113" width="138" height="46">
<path d="M159.418 113.79H22.9384V158.92H159.418V113.79Z" fill="white"/>
</mask>
<g mask="url(#mask23_23_546)">
<path d="M40.9684 134.86H22.5784V140.4H40.9684V134.86Z" fill="white"/>
</g>
</g>
</g>
</g>
<mask id="mask24_23_546" style="mask-type:luminance" maskUnits="userSpaceOnUse" x="58" y="135" width="25" height="6">
<path d="M81.0985 140.03H58.6685C58.6785 137.37 60.8685 135.21 63.5785 135.21H77.3785C79.1685 135.21 80.8085 135.88 82.0585 136.99C83.2085 138.01 82.5785 139.88 81.1085 140.03" fill="white"/>
</mask>
<g mask="url(#mask24_23_546)">
<path d="M83.5585 134.86H58.3085V140.4H83.5585V134.86Z" fill="white"/>
</g>
<mask id="mask25_23_546" style="mask-type:luminance" maskUnits="userSpaceOnUse" x="35" y="137" width="26" height="3">
<path d="M60.0784 137.84H35.9584V139.99H60.0784V137.84Z" fill="white"/>
</mask>
<g mask="url(#mask25_23_546)">
<path d="M60.4284 137.49H35.5984V140.36H60.4284V137.49Z" fill="white"/>
</g>
<mask id="mask26_23_546" style="mask-type:luminance" maskUnits="userSpaceOnUse" x="40" y="137" width="20" height="5">
<path d="M59.1584 137.82C58.4584 140.02 56.3884 141.61 53.9284 141.61H45.3184C42.8584 141.61 40.7884 140.02 40.0884 137.82H59.1584Z" fill="white"/>
</mask>
<g mask="url(#mask26_23_546)">
<path d="M59.5185 137.47H39.7285V141.98H59.5185V137.47Z" fill="#010000"/>
</g>
<mask id="mask27_23_546" style="mask-type:luminance" maskUnits="userSpaceOnUse" x="95" y="123" width="16" height="8">
<path d="M106.688 130.96H96.9985C95.9885 130.96 95.1685 130.15 95.1685 129.16C95.1685 125.88 97.8685 123.22 101.188 123.22H106.688C108.858 123.22 110.608 124.95 110.608 127.09C110.608 129.23 108.848 130.96 106.688 130.96Z" fill="white"/>
</mask>
<g mask="url(#mask27_23_546)">
<path d="M110.968 122.85H94.8085V131.31H110.968V122.85Z" fill="#FC8040"/>
</g>
<mask id="mask28_23_546" style="mask-type:luminance" maskUnits="userSpaceOnUse" x="98" y="124" width="18" height="14">
<path d="M115.168 128.74L110.588 128.05C110.628 127.84 110.648 127.62 110.648 127.4V127.06C110.648 125.92 110.128 124.9 109.298 124.22C109.248 124.22 109.198 124.22 109.148 124.22H104.948C102.208 124.22 99.8185 125.67 98.5085 127.83C98.2285 128.29 98.5585 128.88 99.1085 128.88H109.248C109.248 129.98 108.798 131.91 104.948 132.2C100.678 132.52 112.978 137.7 112.978 137.7L115.378 131.38L115.178 128.75L115.168 128.74Z" fill="white"/>
</mask>
<g mask="url(#mask28_23_546)">
<path d="M115.728 123.85H97.8785V138.05H115.728V123.85Z" fill="#F55A23"/>
</g>
</svg>
