<svg width="192" height="192" viewBox="0 0 192 192" fill="none" xmlns="http://www.w3.org/2000/svg">
<g clip-path="url(#clip0_23_342)">
<path d="M70.68 59.99H41.84C39.37 59.99 37.42 62.07 37.56 64.53L43.22 159.27C43.36 161.53 45.23 163.3 47.5 163.3H93.85C96.12 163.3 97.99 161.53 98.13 159.27L103.79 64.53C103.94 62.07 101.98 59.99 99.51 59.99H70.67H70.68Z" fill="#FDC8A6"/>
<g opacity="0.5">
<path d="M42.87 153.26L43.23 159.27C43.37 161.53 45.24 163.3 47.51 163.3H93.86C96.13 163.3 98 161.53 98.14 159.27L101.76 98.73C91.13 124.49 69.58 144.59 42.88 153.26H42.87Z" fill="#FFA46C"/>
</g>
<path d="M102.15 34.0662C102.812 31.4594 101.236 28.8091 98.6294 28.1466C96.0226 27.4841 93.3723 29.0602 92.7098 31.667L69.6442 122.422C68.9817 125.028 70.5578 127.679 73.1646 128.341C75.7713 129.004 78.4216 127.428 79.0841 124.821L102.15 34.0662Z" fill="#FFA46C"/>
<path opacity="0.5" d="M38.02 70.69L103.06 76.89L103.8 64.54C103.95 62.08 101.99 60 99.52 60H41.84C39.37 60 37.42 62.08 37.56 64.54L38.02 70.69Z" fill="#FFA46C"/>
<path d="M100.64 59.99H40.72C37.7653 59.99 35.37 62.383 35.37 65.335C35.37 68.287 37.7653 70.68 40.72 70.68H100.64C103.595 70.68 105.99 68.287 105.99 65.335C105.99 62.383 103.595 59.99 100.64 59.99Z" fill="#FF4900"/>
<path d="M72.0606 157.225C74.7155 156.794 76.5183 154.292 76.0874 151.637C75.6564 148.982 73.1549 147.179 70.5 147.61C67.8451 148.041 66.0423 150.543 66.4732 153.198C66.9041 155.853 69.4057 157.656 72.0606 157.225Z" fill="#FFEAE0"/>
<path d="M81.8063 143.008C84.4612 142.577 86.2641 140.075 85.8331 137.42C85.4022 134.765 82.9006 132.963 80.2457 133.394C77.5909 133.825 75.788 136.326 76.219 138.981C76.6499 141.636 79.1515 143.439 81.8063 143.008Z" fill="#FFEAE0"/>
<path d="M62.3181 143.001C64.973 142.57 66.7759 140.068 66.3449 137.413C65.914 134.758 63.4124 132.955 60.7576 133.386C58.1027 133.817 56.2998 136.319 56.7308 138.974C57.1617 141.629 59.6633 143.431 62.3181 143.001Z" fill="#FFEAE0"/>
<path d="M52.5724 157.227C55.2273 156.796 57.0301 154.295 56.5992 151.64C56.1682 148.985 53.6667 147.182 51.0118 147.613C48.3569 148.044 46.5541 150.546 46.985 153.201C47.416 155.855 49.9175 157.658 52.5724 157.227Z" fill="#FFEAE0"/>
<path d="M91.5489 157.223C94.2038 156.792 96.0066 154.291 95.5757 151.636C95.1447 148.981 92.6432 147.178 89.9883 147.609C87.3334 148.04 85.5306 150.542 85.9615 153.197C86.3925 155.851 88.894 157.654 91.5489 157.223Z" fill="#FFEAE0"/>
<path d="M128.8 112.6C127.39 110.81 126.86 108.48 127.38 106.26C128.47 101.58 124.93 97.09 120.12 97.08C117.84 97.08 115.69 96.02 114.27 94.24C111.29 90.47 105.57 90.44 102.56 94.19C101.13 95.97 98.97 97 96.69 96.99C91.88 96.97 88.3 101.42 89.35 106.11C89.85 108.33 89.31 110.67 87.88 112.44C84.86 116.19 86.11 121.76 90.44 123.87C92.49 124.87 93.97 126.74 94.47 128.97C95.52 133.66 100.66 136.16 105 134.09C107.06 133.11 109.45 133.12 111.5 134.12C115.82 136.23 120.98 133.77 122.07 129.08C122.59 126.86 124.09 124.99 126.14 124.01C130.48 121.94 131.78 116.38 128.79 112.61L128.8 112.6Z" fill="#0FAE66"/>
<path d="M94.64 121.91V108.55C94.64 105.82 92.43 103.61 89.7 103.61C88.2 103.61 86.86 104.28 85.95 105.33C85.31 106.07 84.21 106.07 83.57 105.33C82.66 104.27 81.32 103.61 79.82 103.61C78.32 103.61 76.98 104.28 76.07 105.33C75.43 106.07 74.33 106.07 73.69 105.33C72.78 104.27 71.44 103.61 69.94 103.61C68.44 103.61 67.1 104.28 66.19 105.33C65.55 106.07 64.45 106.07 63.81 105.33C62.9 104.27 61.56 103.61 60.06 103.61C57.33 103.61 55.12 105.82 55.12 108.55V121.91H94.6H94.64Z" fill="#FDBA01"/>
<path d="M134.28 90.63C130.46 91.67 127.19 93.71 124.66 96.39C122.87 98.29 120.52 99.54 117.98 100.12C117.75 100.17 117.52 100.23 117.29 100.29C108.8 102.61 103.79 111.37 106.11 119.87C108.43 128.36 117.19 133.37 125.69 131.05C127.3 130.61 128.78 129.94 130.11 129.09C134.6 131.45 139.96 132.18 145.24 130.74C156.31 127.72 162.84 116.29 159.82 105.21C156.8 94.14 145.37 87.61 134.29 90.63H134.28Z" fill="#FDC8A6"/>
<path d="M87.85 108.98L100.87 104.46C103.65 103.49 106.55 105.56 106.55 108.5V113.02C106.55 115.38 104.64 117.29 102.28 117.29H89.26C84.44 117.29 83.31 110.56 87.86 108.98H87.85Z" fill="#FC5F00"/>
<path d="M55.46 113.21H161.18C163.88 113.21 166.07 115.4 166.07 118.1V127.19C166.07 143.38 152.93 156.52 136.74 156.52H79.9C63.71 156.52 50.57 143.38 50.57 127.19V118.1C50.57 115.4 52.76 113.21 55.46 113.21Z" fill="#FF4900"/>
<path d="M50.58 122.41H166.07" stroke="#FFEADF" stroke-width="1.65" stroke-linecap="round" stroke-linejoin="round"/>
<path d="M79.45 156.52H137.25C137.25 160.57 133.96 163.86 129.91 163.86H86.79C82.74 163.86 79.45 160.57 79.45 156.52Z" fill="#FFA46C"/>
<g opacity="0.5">
<path d="M107.3 163.86H129.91C133.97 163.86 137.25 160.57 137.25 156.52H125.78C120.17 159.95 113.94 162.46 107.3 163.86Z" fill="#FC5F00"/>
</g>
<g opacity="0.5">
<path d="M161.18 113.21H153.63C151.44 131.56 140.84 147.32 125.78 156.52H136.74C152.94 156.52 166.07 143.39 166.07 127.19V118.09C166.07 115.39 163.88 113.2 161.18 113.2V113.21Z" fill="#FC5F00"/>
</g>
<path d="M65.31 108.92L69.36 112.4L72.27 116.49C89.83 141.14 63.57 173.18 35.95 160.8L65.31 108.92Z" fill="#811A00"/>
<path d="M65.2 144.06C65.29 138.35 67.04 132.85 70.09 128.02C70.21 127.83 70.33 127.63 70.44 127.43C74.14 120.9 71.84 112.6 65.3 108.9C58.77 105.2 50.47 107.5 46.77 114.04C46.66 114.24 46.55 114.44 46.45 114.64C43.89 119.74 40.07 124.07 35.22 127.09C32.53 128.76 30.21 131.12 28.53 134.07C23.2 143.49 26.51 155.45 35.93 160.78C45.35 166.11 57.31 162.8 62.64 153.38C64.31 150.43 65.13 147.22 65.18 144.05L65.2 144.06Z" fill="#24C170"/>
<path d="M51.67 133.19C46.57 130.25 39.97 132.14 36.93 137.41C33.89 142.68 35.56 149.34 40.67 152.28C45.77 155.22 52.37 153.33 55.41 148.06C58.45 142.79 56.78 136.13 51.67 133.19Z" fill="#811A00"/>
</g>
<defs>
<clipPath id="clip0_23_342">
<rect width="140.9" height="135.86" fill="white" transform="translate(26 28)"/>
</clipPath>
</defs>
</svg>
