<svg width="192" height="192" viewBox="0 0 192 192" fill="none" xmlns="http://www.w3.org/2000/svg">
<mask id="mask0_23_510" style="mask-type:luminance" maskUnits="userSpaceOnUse" x="22" y="24" width="148" height="148">
<path d="M161.78 24H30.22C25.6802 24 22 27.6802 22 32.22V163.78C22 168.32 25.6802 172 30.22 172H161.78C166.32 172 170 168.32 170 163.78V32.22C170 27.6802 166.32 24 161.78 24Z" fill="white"/>
</mask>
<g mask="url(#mask0_23_510)">
<path d="M296.63 174.5H35.09C8.26999 174.5 -10.59 148.12 -1.92001 122.74L18.28 63.62C23.69 47.79 38.56 37.16 55.29 37.16H276.42C293.15 37.16 308.02 47.8 313.43 63.62L333.63 122.74C342.3 148.12 323.44 174.5 296.62 174.5H296.63Z" fill="#FFE6E0"/>
<path d="M333.64 122.74L329.44 110.45C328.5 107.69 325.9 105.83 322.98 105.83H295.23C287.93 105.83 281.44 101.19 279.08 94.28L278.76 93.33C276.4 86.42 269.91 81.78 262.61 81.78H223.77C216.47 81.78 209.98 86.42 207.62 93.33L207.3 94.28C204.94 101.19 198.45 105.83 191.15 105.83H140.61C133.31 105.83 126.82 101.19 124.46 94.28L124.14 93.33C121.78 86.42 115.29 81.78 107.99 81.78H69.15C61.85 81.78 55.36 86.42 53 93.33L52.68 94.28C50.32 101.19 43.83 105.83 36.53 105.83H8.75C5.83 105.83 3.23 107.69 2.29 110.45L-1.91 122.74C-10.58 148.12 8.28001 174.49 35.1 174.5H296.65C323.47 174.5 342.33 148.12 333.66 122.74H333.64Z" fill="#FDCFC4"/>
<path d="M165.81 105.83V174.42" stroke="#ED755E" stroke-width="0.68" stroke-linecap="round" stroke-linejoin="round"/>
<path d="M141.58 151.31L136.41 121.55C133.57 105.19 119.37 93.25 102.77 93.25H74.3C57.7 93.25 43.5 105.19 40.66 121.55L35.49 151.31C33.39 163.38 42.68 174.42 54.93 174.42H122.13C134.38 174.42 143.67 163.38 141.57 151.31H141.58Z" fill="#191E29"/>
<path d="M76.45 95.38C75.27 95.38 74.32 94.42 74.32 93.25V88.84C74.32 87.66 75.28 86.71 76.45 86.71C77.62 86.71 78.58 87.67 78.58 88.84V93.25C78.58 94.43 77.62 95.38 76.45 95.38Z" fill="#394E76"/>
<path d="M100.63 95.38C99.45 95.38 98.5 94.42 98.5 93.25V88.84C98.5 87.66 99.46 86.71 100.63 86.71C101.8 86.71 102.76 87.67 102.76 88.84V93.25C102.76 94.43 101.8 95.38 100.63 95.38Z" fill="#394E76"/>
<path d="M104.55 88.84H72.54C66.69 88.84 62.57 83.08 64.46 77.54L66.24 72.34C67.42 68.89 70.67 66.56 74.32 66.56H102.77C106.42 66.56 109.67 68.88 110.85 72.34L112.63 77.54C114.52 83.08 110.41 88.84 104.55 88.84Z" fill="#191E29"/>
<path d="M176.56 59.88H155.15C151.85 59.88 149.52 56.63 150.59 53.5L151.71 50.22C152.38 48.27 154.21 46.96 156.27 46.96H175.43C177.49 46.96 179.32 48.27 179.99 50.22L181.11 53.5C182.18 56.63 179.85 59.88 176.55 59.88H176.56Z" fill="black"/>
<path d="M165.81 51.12C164.68 51.12 163.77 50.21 163.77 49.08V42.62C163.77 41.49 164.68 40.58 165.81 40.58C166.94 40.58 167.85 41.49 167.85 42.62V49.08C167.85 50.21 166.94 51.12 165.81 51.12Z" fill="#394E76"/>
<path d="M71.49 118.42C84.14 116.5 92.46 103.77 88.56 91.59C88.45 91.23 88.36 90.87 88.3 90.5C87.36 84.3 93.13 83.28 92.04 77.1C91.14 72 86.96 71.82 84.91 68.44C83.85 66.7 82.18 65.41 80.18 65L79.97 64.96C77.32 64.41 74.59 65.41 72.92 67.53L55.07 90.29C52.09 94.09 50.81 98.95 51.54 103.73C52.99 113.29 61.92 119.87 71.49 118.42Z" fill="#932600"/>
<path d="M89.44 67.73L111.9 89.16C120.58 97.44 117.99 111.91 106.96 116.65C95.91 121.4 83.6 113.3 83.6 101.27V70.23C83.6 68.32 85.15 66.78 87.05 66.78C87.94 66.78 88.79 67.12 89.43 67.74L89.44 67.73Z" fill="#932600"/>
<path d="M108.17 85.6C103.76 81.39 107.79 77.17 103.38 72.97C98.97 68.76 94.94 72.99 90.53 68.78V106.64L108.16 85.6H108.17Z" fill="#932600"/>
<path d="M61.04 108.56C58.55 110.08 57.03 112.79 57.03 115.71C57.03 120.33 60.78 124.08 65.4 124.08H115.25C119.87 124.08 123.62 120.33 123.62 115.71C123.62 112.79 122.1 110.08 119.61 108.56C101.63 97.6 79.03 97.6 61.04 108.56Z" fill="#D47253"/>
<path d="M87.49 60.34H87.48C77.4118 60.34 69.25 68.5018 69.25 78.57V78.58C69.25 88.6482 77.4118 96.81 87.48 96.81H87.49C97.5581 96.81 105.72 88.6482 105.72 78.58V78.57C105.72 68.5018 97.5581 60.34 87.49 60.34Z" fill="#932600"/>
<mask id="mask1_23_510" style="mask-type:luminance" maskUnits="userSpaceOnUse" x="79" y="84" width="23" height="29">
<path d="M101.62 101.47C99.62 101.1 98.17 99.36 98.17 97.33V91.92C98.17 87.58 94.65 84.07 90.32 84.07C85.98 84.07 82.47 87.59 82.47 91.92V97.33C82.47 99.36 81.02 101.1 79.02 101.47C79.02 107.71 84.08 112.77 90.32 112.77C96.56 112.77 101.62 107.71 101.62 101.47Z" fill="white"/>
</mask>
<g mask="url(#mask1_23_510)">
<path d="M101.62 101.47C99.62 101.1 98.17 99.36 98.17 97.33V91.92C98.17 87.58 94.65 84.07 90.32 84.07C85.98 84.07 82.47 87.59 82.47 91.92V97.33C82.47 99.36 81.02 101.1 79.02 101.47C79.02 107.71 84.08 112.77 90.32 112.77C96.56 112.77 101.62 107.71 101.62 101.47Z" fill="#D47253"/>
<path d="M98.21 101.47C104.484 101.47 109.57 96.384 109.57 90.11C109.57 83.836 104.484 78.75 98.21 78.75C91.936 78.75 86.85 83.836 86.85 90.11C86.85 96.384 91.936 101.47 98.21 101.47Z" fill="#A4543A"/>
</g>
<path d="M112.66 104.94H112.65C99.79 115.96 80.83 115.96 67.98 104.94C67.2 105.29 66.42 105.65 65.65 106.04L68.74 154.84C68.93 157.85 71.07 160.38 74.01 161.06C84.75 163.55 95.91 163.55 106.65 161.06C109.59 160.38 111.73 157.85 111.92 154.84L115.01 106.04C114.23 105.65 113.45 105.29 112.66 104.94Z" fill="#FFAD8C"/>
<path d="M118.4 107.55L112.74 104.94V118.38C112.74 129.67 113.49 140.95 114.98 152.14C115.59 156.7 119.47 160.1 124.07 160.1C129.5 160.1 133.74 155.41 133.2 150.01L130.66 124.74C129.91 117.24 125.24 110.7 118.4 107.55Z" fill="#FFAD8C"/>
<path d="M62.31 107.55L67.97 104.94V118.38C67.97 129.67 67.22 140.95 65.73 152.14C65.12 156.7 61.24 160.1 56.64 160.1C51.21 160.1 46.97 155.41 47.51 150.01L50.05 124.74C50.8 117.24 55.47 110.7 62.31 107.55Z" fill="#FFAD8C"/>
<path d="M72.95 81.03C72.95 83.4214 74.8886 85.36 77.28 85.36C79.6714 85.36 81.61 83.4214 81.61 81.03C81.61 78.6386 79.6714 76.7 77.28 76.7C74.8886 76.7 72.95 78.6386 72.95 81.03Z" fill="#D47253"/>
<path d="M77.31 78.35C75.83 78.35 74.63 79.55 74.63 81.03" stroke="#A4543A" stroke-width="0.68" stroke-linecap="round" stroke-linejoin="round"/>
<path d="M90.21 63.82C82.63 63.82 76.69 70.33 77.38 77.88L78.01 84.78L78.11 85.84C78.72 92.06 83.95 96.81 90.2 96.81C96.47 96.81 101.71 92.04 102.29 85.8L103.03 77.91C103.74 70.35 97.79 63.82 90.2 63.82H90.21Z" fill="#D47253"/>
<path d="M92.25 88.81C93.6914 88.81 94.86 88.0847 94.86 87.19C94.86 86.2953 93.6914 85.57 92.25 85.57C90.8085 85.57 89.64 86.2953 89.64 87.19C89.64 88.0847 90.8085 88.81 92.25 88.81Z" fill="#A4543A"/>
<path d="M95.56 76.26L95.65 76.21C96.9 75.47 98.48 75.53 99.67 76.38" stroke="#43170D" stroke-width="1.02" stroke-linecap="round" stroke-linejoin="round"/>
<path d="M84.86 76.26L84.95 76.21C86.2 75.47 87.78 75.53 88.97 76.38" stroke="#43170D" stroke-width="1.02" stroke-linecap="round" stroke-linejoin="round"/>
<path d="M97.61 79.88C98.2838 79.88 98.83 79.3338 98.83 78.66C98.83 77.9862 98.2838 77.44 97.61 77.44C96.9362 77.44 96.39 77.9862 96.39 78.66C96.39 79.3338 96.9362 79.88 97.61 79.88Z" fill="#43170D"/>
<path d="M86.91 79.88C87.5838 79.88 88.13 79.3338 88.13 78.66C88.13 77.9862 87.5838 77.44 86.91 77.44C86.2362 77.44 85.69 77.9862 85.69 78.66C85.69 79.3338 86.2362 79.88 86.91 79.88Z" fill="#43170D"/>
<path d="M92.26 79.37L93.71 80.65C94.09 80.99 94.3 81.47 94.3 81.97C94.3 82.9 93.58 83.67 92.66 83.73" stroke="#A4543A" stroke-width="0.68" stroke-linecap="round" stroke-linejoin="round"/>
<path d="M88.13 86.02C90.66 87.59 93.86 87.59 96.4 86.02" stroke="#43170D" stroke-width="0.68" stroke-linecap="round" stroke-linejoin="round"/>
<path d="M93.29 89.62C92.63 89.81 91.92 89.81 91.25 89.62H91.23" stroke="#A4543A" stroke-width="0.68" stroke-linecap="round" stroke-linejoin="round"/>
<path d="M96.56 133.53C101.05 137.41 106.75 137.49 111.3 133.74L111.55 133.53" stroke="#FC803B" stroke-width="0.68" stroke-linecap="round" stroke-linejoin="round"/>
<path d="M73.35 133.53C77.84 137.41 83.54 137.49 88.09 133.74L88.34 133.53" stroke="#FC803B" stroke-width="0.68" stroke-linecap="round" stroke-linejoin="round"/>
<path d="M68.53 84.27H68.52C59.0372 84.27 51.35 91.9573 51.35 101.44V101.45C51.35 110.933 59.0372 118.62 68.52 118.62H68.53C78.0127 118.62 85.7 110.933 85.7 101.45V101.44C85.7 91.9573 78.0127 84.27 68.53 84.27Z" fill="#932600"/>
<path fill-rule="evenodd" clip-rule="evenodd" d="M74.81 85.59C74.81 86.96 75.91 88.06 77.28 88.06C78.64 88.06 79.75 86.96 79.75 85.59C79.75 84.22 78.65 83.12 77.28 83.12C75.92 83.12 74.81 84.22 74.81 85.59Z" fill="#FBFBFB"/>
<path d="M105.55 76.09C104.44 67.94 97.94 61.51 89.76 60.49C89.71 60.49 89.66 60.49 89.61 60.49C81.27 61.54 74.71 68.28 73.93 76.7C83.09 77.5 92.06 73.72 97.88 66.59L97.99 66.46L98.21 67.15C99.38 70.87 101.63 74.15 104.67 76.58C104.77 76.66 104.89 76.7 105.01 76.7C105.34 76.7 105.59 76.42 105.55 76.09Z" fill="#932600"/>
<path d="M326.74 160.34C319.34 154.41 310.14 151.18 300.65 151.18H31.07C21.59 151.18 12.39 154.41 4.97998 160.34C12.04 168.88 22.72 174.5 35.09 174.5H296.63C309 174.5 319.68 168.88 326.74 160.34Z" fill="black"/>
<path d="M74.2 37.73L68.06 69.82C67.72 71.6 69.32 73.14 71.09 72.73L96.95 66.69C98.71 66.28 99.47 64.19 98.38 62.74L78.66 36.68C77.35 34.95 74.61 35.59 74.2 37.72V37.73Z" fill="#FD8216"/>
<g style="mix-blend-mode:multiply" opacity="0.6">
<path d="M86.18 46.63L87.7 48.64C93.81 56.72 89.59 68.41 79.72 70.71L96.94 66.69C98.7 66.28 99.46 64.19 98.37 62.74L86.17 46.62L86.18 46.63Z" fill="#FC9E76"/>
</g>
<mask id="mask2_23_510" style="mask-type:luminance" maskUnits="userSpaceOnUse" x="68" y="35" width="31" height="38">
<path d="M74.2 37.73L68.06 69.82C67.72 71.6 69.32 73.14 71.09 72.73L96.95 66.69C98.71 66.28 99.47 64.19 98.38 62.74L78.66 36.68C77.35 34.95 74.61 35.59 74.2 37.72V37.73Z" fill="white"/>
</mask>
<g mask="url(#mask2_23_510)">
<path d="M93.98 40.18C94.25 41.33 93.53 42.48 92.38 42.75C91.23 43.02 90.08 42.3 89.81 41.15" stroke="#FDEC03" stroke-linecap="round" stroke-linejoin="round"/>
<path d="M76.66 46.42C76.39 45.27 77.11 44.12 78.26 43.85C79.41 43.58 80.56 44.3 80.83 45.45" stroke="#FDEC03" stroke-linecap="round" stroke-linejoin="round"/>
<path d="M75.69 54.69C75.96 55.84 75.24 56.99 74.09 57.26C72.94 57.53 71.79 56.81 71.52 55.66" stroke="#FDEC03" stroke-linecap="round" stroke-linejoin="round"/>
<path d="M85.65 54.57C85.38 53.42 86.1 52.27 87.25 52C88.4 51.73 89.55 52.45 89.82 53.6" stroke="#FDEC03" stroke-linecap="round" stroke-linejoin="round"/>
<path d="M71.24 65.98C71.51 67.13 70.79 68.28 69.64 68.55C68.49 68.82 67.34 68.1 67.07 66.95" stroke="#FDEC03" stroke-linecap="round" stroke-linejoin="round"/>
<path d="M98.51 59.61C98.78 60.76 98.06 61.91 96.91 62.18C95.76 62.45 94.61 61.73 94.34 60.58" stroke="#FDEC03" stroke-linecap="round" stroke-linejoin="round"/>
<path d="M81.19 65.85C80.92 64.7 81.64 63.55 82.79 63.28C83.94 63.01 85.09 63.73 85.36 64.88" stroke="#FDEC03" stroke-linecap="round" stroke-linejoin="round"/>
</g>
<path d="M83.08 33.01C83.25 33.72 82.02 34.53 81.96 35.22C81.9 35.91 82.96 36.94 82.69 37.59C82.42 38.24 80.95 38.18 80.49 38.72C80.03 39.26 80.31 40.69 79.69 41.06C79.07 41.43 77.96 40.51 77.24 40.68C76.52 40.85 75.91 42.16 75.21 42.11C74.51 42.06 74.1 40.64 73.45 40.36C72.8 40.08 71.51 40.79 70.97 40.32C70.44 39.86 70.95 38.49 70.57 37.88C70.19 37.27 68.76 37.11 68.59 36.39C68.42 35.67 69.65 34.87 69.71 34.18C69.77 33.49 68.71 32.46 68.98 31.81C69.25 31.16 70.72 31.22 71.18 30.68C71.64 30.14 71.36 28.71 71.98 28.34C72.6 27.97 73.71 28.89 74.43 28.72C75.15 28.55 75.76 27.24 76.46 27.29C77.16 27.34 77.57 28.76 78.22 29.04C78.87 29.32 80.16 28.61 80.7 29.08C81.23 29.54 80.72 30.91 81.1 31.52C81.48 32.13 82.91 32.29 83.08 33.01Z" fill="#FDEC03"/>
</g>
<path d="M146.31 103.4C145.17 102.22 143.56 101.79 141.98 102.24C140.41 102.69 139.27 103.92 138.93 105.52L136.65 116.42L134.37 105.52C134.04 103.92 132.9 102.69 131.32 102.24C129.75 101.79 128.13 102.22 126.99 103.4C125.41 105.04 125.37 107.65 126.91 109.33L136.22 119.54C136.24 119.57 136.27 119.59 136.3 119.61C136.3 119.61 136.32 119.61 136.32 119.62C136.34 119.63 136.35 119.64 136.37 119.65C136.37 119.65 136.37 119.65 136.38 119.65C136.41 119.66 136.43 119.67 136.46 119.68C136.47 119.68 136.48 119.68 136.5 119.69C136.54 119.69 136.58 119.7 136.62 119.7C136.66 119.7 136.7 119.7 136.74 119.69C136.75 119.69 136.76 119.69 136.78 119.68C136.81 119.68 136.84 119.66 136.86 119.65C136.86 119.65 136.86 119.65 136.87 119.65C136.89 119.65 136.9 119.63 136.92 119.62C136.92 119.62 136.94 119.62 136.94 119.6C136.97 119.58 137 119.56 137.02 119.53L146.33 109.32C147.87 107.64 147.83 105.03 146.25 103.39L146.31 103.4ZM127.76 108.57C126.62 107.32 126.65 105.39 127.82 104.17C128.44 103.52 129.26 103.18 130.11 103.18C130.41 103.18 130.72 103.22 131.02 103.31C132.19 103.65 133.03 104.56 133.28 105.74L135.69 117.26L127.76 108.57ZM145.56 108.57L137.63 117.26L140.04 105.74C140.29 104.55 141.13 103.64 142.3 103.31C142.6 103.22 142.91 103.18 143.21 103.18C144.07 103.18 144.88 103.52 145.5 104.17C146.67 105.39 146.7 107.32 145.56 108.57Z" fill="#FC1B00"/>
<path d="M156.86 164.52H116.46C111.82 164.52 108.33 160.28 109.21 155.73L115.83 121.68C116.5 118.21 119.54 115.71 123.08 115.71H150.23C153.76 115.71 156.8 118.21 157.48 121.68L164.1 155.73C164.99 160.29 161.5 164.52 156.85 164.52H156.86Z" fill="#FC1B00"/>
<mask id="mask3_23_510" style="mask-type:luminance" maskUnits="userSpaceOnUse" x="109" y="115" width="56" height="50">
<path d="M156.86 164.52H116.46C111.82 164.52 108.33 160.28 109.21 155.73L115.83 121.68C116.5 118.21 119.54 115.71 123.08 115.71H150.23C153.76 115.71 156.8 118.21 157.48 121.68L164.1 155.73C164.99 160.29 161.5 164.52 156.85 164.52H156.86Z" fill="white"/>
</mask>
<g mask="url(#mask3_23_510)">
<g opacity="0.68">
<path d="M130.26 121.7C130.26 123.29 128.97 124.59 127.37 124.59C125.77 124.59 124.48 123.3 124.48 121.7" stroke="#FDA28C" stroke-width="1.48" stroke-linecap="round" stroke-linejoin="round"/>
<path d="M105.61 124.58C105.61 122.99 106.9 121.69 108.5 121.69C110.1 121.69 111.39 122.98 111.39 124.58" stroke="#FDA28C" stroke-width="1.48" stroke-linecap="round" stroke-linejoin="round"/>
<path d="M168.03 121.7C168.03 123.29 166.74 124.59 165.14 124.59C163.54 124.59 162.25 123.3 162.25 121.7" stroke="#FDA28C" stroke-width="1.48" stroke-linecap="round" stroke-linejoin="round"/>
<path d="M143.37 124.58C143.37 122.99 144.66 121.69 146.26 121.69C147.86 121.69 149.15 122.98 149.15 124.58" stroke="#FDA28C" stroke-width="1.48" stroke-linecap="round" stroke-linejoin="round"/>
<path d="M139.57 132.91C139.57 134.5 138.28 135.8 136.68 135.8C135.08 135.8 133.79 134.51 133.79 132.91" stroke="#FDA28C" stroke-width="1.48" stroke-linecap="round" stroke-linejoin="round"/>
<path d="M114.92 135.79C114.92 134.2 116.21 132.9 117.81 132.9C119.41 132.9 120.7 134.19 120.7 135.79" stroke="#FDA28C" stroke-width="1.48" stroke-linecap="round" stroke-linejoin="round"/>
<path d="M152.68 135.79C152.68 134.2 153.97 132.9 155.57 132.9C157.17 132.9 158.46 134.19 158.46 135.79" stroke="#FDA28C" stroke-width="1.48" stroke-linecap="round" stroke-linejoin="round"/>
<path d="M130.26 144.11C130.26 145.7 128.97 147 127.37 147C125.77 147 124.48 145.71 124.48 144.11" stroke="#FDA28C" stroke-width="1.48" stroke-linecap="round" stroke-linejoin="round"/>
<path d="M105.61 147C105.61 145.41 106.9 144.11 108.5 144.11C110.09 144.11 111.39 145.4 111.39 147" stroke="#FDA28C" stroke-width="1.48" stroke-linecap="round" stroke-linejoin="round"/>
<path d="M168.03 144.11C168.03 145.7 166.74 147 165.14 147C163.54 147 162.25 145.71 162.25 144.11" stroke="#FDA28C" stroke-width="1.48" stroke-linecap="round" stroke-linejoin="round"/>
<path d="M143.37 147C143.37 145.41 144.66 144.11 146.26 144.11C147.85 144.11 149.15 145.4 149.15 147" stroke="#FDA28C" stroke-width="1.48" stroke-linecap="round" stroke-linejoin="round"/>
<path d="M139.57 155.32C139.57 156.91 138.28 158.21 136.68 158.21C135.08 158.21 133.79 156.92 133.79 155.32" stroke="#FDA28C" stroke-width="1.48" stroke-linecap="round" stroke-linejoin="round"/>
<path d="M114.92 158.21C114.92 156.62 116.21 155.32 117.81 155.32C119.4 155.32 120.7 156.61 120.7 158.21" stroke="#FDA28C" stroke-width="1.48" stroke-linecap="round" stroke-linejoin="round"/>
<path d="M152.68 158.21C152.68 156.62 153.97 155.32 155.57 155.32C157.16 155.32 158.46 156.61 158.46 158.21" stroke="#FDA28C" stroke-width="1.48" stroke-linecap="round" stroke-linejoin="round"/>
</g>
<path d="M114.55 128.3H158.76" stroke="#FDA28C" stroke-width="1.48" stroke-linecap="round" stroke-linejoin="round"/>
<path d="M136.66 115.71V164.52" stroke="#FDA28C" stroke-width="1.48" stroke-linecap="round" stroke-linejoin="round"/>
</g>
</svg>
